{
    "asset" : {
        "generator" : "Khronos glTF Blender I/O v3.4.50",
        "version" : "2.0"
    },
    "extensionsUsed" : [
        "KHR_materials_specular"
    ],
    "scene" : 0,
    "scenes" : [
        {
            "name" : "Scene",
            "nodes" : [
                0,
                5,
                6
            ]
        }
    ],
    "nodes" : [
        {
            "mesh" : 0,
            "name" : "Sphere.001",
            "scale" : [
                -35.878623962402344,
                -35.878623962402344,
                -35.878623962402344
            ]
        },
        {
            "name" : "CORNEA_"
        },
        {
            "name" : "IRIS_FINAL"
        },
        {
            "children" : [
                1,
                2
            ],
            "name" : "RootNode"
        },
        {
            "children" : [
                3
            ],
            "name" : "22ec5c9939344a4f937fbad873d26bed.fbx",
            "rotation" : [
                0.70710688829422,
                0,
                0,
                0.7071066498756409
            ]
        },
        {
            "children" : [
                4
            ],
            "name" : "RootNode (model correction matrix)",
            "scale" : [
                48.28706359863281,
                48.28706359863281,
                48.28706359863281
            ],
            "translation" : [
                -186.41268920898438,
                -165.6516876220703,
                -121.23094177246094
            ]
        },
        {
            "camera" : 0,
            "name" : "Camera",
            "rotation" : [
                -0.20997297763824463,
                0.3857799470424652,
                0.09062845259904861,
                0.8937962055206299
            ],
            "scale" : [
                48.28706359863281,
                48.28705978393555,
                48.28705596923828
            ],
            "translation" : [
                232.3303985595703,
                126.21675109863281,
                285.02081298828125
            ]
        }
    ],
    "cameras" : [
        {
            "name" : "Camera",
            "perspective" : {
                "aspectRatio" : 1.7777777777777777,
                "yfov" : 0.39959652046304894,
                "zfar" : 100,
                "znear" : 0.10000000149011612
            },
            "type" : "perspective"
        }
    ],
    "materials" : [
        {
            "doubleSided" : true,
            "extensions" : {
                "KHR_materials_specular" : {
                    "specularColorFactor" : [
                        0.8740157485008239,
                        0.8740157485008239,
                        0.8740157485008239
                    ]
                }
            },
            "name" : "Material.001",
            "pbrMetallicRoughness" : {
                "baseColorFactor" : [
                    0.3588394224643707,
                    0,
                    0.012662417255342007,
                    1
                ],
                "roughnessFactor" : 0
            }
        }
    ],
    "meshes" : [
        {
            "name" : "Sphere.004",
            "primitives" : [
                {
                    "attributes" : {
                        "POSITION" : 0,
                        "TEXCOORD_0" : 1,
                        "NORMAL" : 2
                    },
                    "indices" : 3,
                    "material" : 0
                }
            ]
        }
    ],
    "accessors" : [
        {
            "bufferView" : 0,
            "componentType" : 5126,
            "count" : 29159,
            "max" : [
                1.2744430303573608,
                1,
                1.274443507194519
            ],
            "min" : [
                -1.2744442224502563,
                -1,
                -1.2744423151016235
            ],
            "type" : "VEC3"
        },
        {
            "bufferView" : 1,
            "componentType" : 5126,
            "count" : 29159,
            "type" : "VEC2"
        },
        {
            "bufferView" : 2,
            "componentType" : 5126,
            "count" : 29159,
            "type" : "VEC3"
        },
        {
            "bufferView" : 3,
            "componentType" : 5123,
            "count" : 171360,
            "type" : "SCALAR"
        }
    ],
    "bufferViews" : [
        {
            "buffer" : 0,
            "byteLength" : 349908,
            "byteOffset" : 0,
            "target" : 34962
        },
        {
            "buffer" : 0,
            "byteLength" : 233272,
            "byteOffset" : 349908,
            "target" : 34962
        },
        {
            "buffer" : 0,
            "byteLength" : 349908,
            "byteOffset" : 583180,
            "target" : 34962
        },
        {
            "buffer" : 0,
            "byteLength" : 342720,
            "byteOffset" : 933088,
            "target" : 34963
        }
    ],
    "buffers" : [
        {
            "byteLength" : 1275808,
            "uri" : "scene.bin"
        }
    ]
}
